<svg width="512" height="512" xmlns="http://www.w3.org/2000/svg" xml:space="preserve" version="1.1">
 <g id="Layer_1">
  <title>Layer 1</title>
  <rect stroke="null" fill="#ffffff" x="4.12292" y="4.12292" width="503.75416" height="503.75416" id="svg_2" rx="56"/>
  <rect fill="#013c84" x="12.12289" y="12.12289" width="487.7542" height="487.7542" id="svg_1" rx="56"/>
  <path fill="#002a5e" opacity="NaN" d="m12.53852,147.93137l486.89819,145.32618l0,149.99955l-54.49422,56.7414l-379.77415,-0.5618c0.17901,0.179 -53.19162,-52.62983 -52.62982,-53.19163c0.5618,-0.5618 0,-298.31371 0,-298.31371l0,0.00001z" id="svg_3"/>
  <path fill="#002a5e" opacity="NaN" d="m12.44044,447.0402c0,0 3.80227,47.90863 52.85159,52.47136c49.04932,4.56273 -12.16727,-62.35727 -12.92773,-62.7375c-0.76045,-0.38023 -39.92386,10.26614 -39.92386,10.26614z" id="svg_5"/>
  <path fill="#002a5e" opacity="NaN" d="m499.51156,441.33679c0,0 2.66159,54.75273 -54.3725,58.17477c-57.03409,3.42205 10.26614,-78.32682 11.40682,-78.32682c1.14068,0 42.96568,20.15204 42.96568,20.15204l0,0.00001z" id="svg_6"/>
  <path fill="#ffffff" opacity="NaN" d="m12.47291,147.75323c1.47783,0.49261 490.14779,145.81281 487.19213,145.81281c-2.95567,0 -253.20197,59.1133 -253.35962,58.95566c0.15764,0.15764 72.07883,-60.9261 69.12316,-60.9261c-2.95567,0 -304.4335,-144.33498 -302.95567,-143.84237z" id="svg_7"/>
 </g>

</svg>